<svg xmlns="http://www.w3.org/2000/svg" viewBox="0 0 1024 1024"><defs><style>.cls-1{fill:#569be5;}.cls-2{font-size:135.44px;font-family:hankenround-Regular, hanken round;}.cls-2,.cls-4{fill:#fff;}.cls-3{fill:none;stroke:#2e34cf;stroke-miterlimit:10;stroke-width:0.84px;}.cls-5{fill:#131654;}.cls-6{fill:#55b1e6;}.cls-7{fill:#2e34cf;}</style></defs><g id="Layer_8" data-name="Layer 8"><circle class="cls-1" cx="512" cy="512" r="512"/></g><g id="Layer_1" data-name="Layer 1"><text class="cls-2" transform="translate(142.86 694.97) scale(1.01 1)">Happy Godi</text></g><g id="Layer_6" data-name="Layer 6"><rect class="cls-3" x="333.55" y="309.45" width="41.93" height="251.55" rx="20.96"/><rect class="cls-3" x="834.19" y="360.39" width="41.93" height="169.54" rx="20.95" transform="matrix(-0.5, -0.87, 0.87, -0.5, 453.21, 1380.31)"/><rect class="cls-3" x="445.91" y="309.45" width="41.93" height="251.55" rx="20.96"/><rect class="cls-4" x="438.36" y="306.1" width="41.93" height="251.55" rx="20.96"/><rect class="cls-4" x="326" y="306.1" width="41.93" height="251.55" rx="20.96"/><rect class="cls-5" x="826.64" y="357.03" width="41.93" height="169.54" rx="20.95" transform="translate(444.79 1368.74) rotate(-120)"/><path class="cls-3" d="M1200.18,491.19a21,21,0,0,1-6,12.43s-44.53,44.33-45.7,45.1h0a125.77,125.77,0,0,1-177.7-178l-.5.79c-.27.44-.51.89-.75,1.35-.15.3-.29.61-.43.91l-.19.43c-.16.39-.32.78-.46,1.18l0,0a21.78,21.78,0,0,0-1.21,6.9c0,.29,0,.58,0,.86a20.07,20.07,0,0,0,.47,3.87c0,.16.07.32.1.48a21,21,0,0,0,1.53,4.3l.32.63c.14.27.28.53.43.78a19.79,19.79,0,0,0,1.1,1.71c.13.19.26.37.41.55s.4.52.61.77l.29.32c.27.31.54.62.84.92l.07.07.69.66a21.39,21.39,0,0,0,26.39,2.08A83.84,83.84,0,0,0,1118.84,519h0c.25-.23,30.66-31.24,30.66-31.24l15.12,15.12a21,21,0,0,0,35.55-11.69Z" transform="translate(-444 -28)"/><path class="cls-3" d="M1045.61,325.16a21.3,21.3,0,0,0-30.1.14l-42.09,42.1a21,21,0,0,0-2.7,3.3l-.5.79a21.38,21.38,0,0,0-3.06,10.81c0,.29,0,.58,0,.86a20.07,20.07,0,0,0,.47,3.87c0,.16.06.32.1.48a21,21,0,0,0,1.53,4.3c.1.21.21.42.32.63s.28.53.43.78a19.79,19.79,0,0,0,1.1,1.71c.13.18.26.37.41.55s.4.52.61.77l.56.64c.18.2.37.41.57.6l.07.07.69.66a21.39,21.39,0,0,0,26.39,2.08c.18-.2.38-.4.57-.59a82.22,82.22,0,0,1,6.23-5.63l38.53-38.54a21.39,21.39,0,0,0,5.14-22h-.14c0-.08,0-.15-.07-.23A20.9,20.9,0,0,0,1045.61,325.16ZM976.24,400c.52.35,1,.68,1.57,1A17.11,17.11,0,0,1,976.24,400Z" transform="translate(-444 -28)"/><path class="cls-3" d="M1108.6,396.55a21,21,0,0,0-14.52,35.77l14.52,14.53L1080.44,475a21,21,0,0,1-29.65-29.64l42.69-42.69A20.84,20.84,0,0,1,1108.6,396.55Z" transform="translate(-444 -28)"/><path class="cls-3" d="M1123.72,402.68l70.56,70.56a20.85,20.85,0,0,1,6,17.44,2.22,2.22,0,0,1,0,.38.51.51,0,0,1,0,.13,21,21,0,0,1-35.55,11.69l-70.55-70.56a21,21,0,0,1,14.52-35.77h.3a20.87,20.87,0,0,1,14.82,6.14Z" transform="translate(-444 -28)"/><path class="cls-4" d="M957.72,376.54l0,0Z" transform="translate(-444 -28)"/><path class="cls-4" d="M958.18,375.36c-.16.39-.32.79-.46,1.18C957.86,376.15,958,375.75,958.18,375.36Z" transform="translate(-444 -28)"/><path class="cls-4" d="M959.55,372.67c-.27.45-.51.9-.75,1.36C959,373.57,959.28,373.12,959.55,372.67Z" transform="translate(-444 -28)"/><path class="cls-4" d="M958.8,374c-.15.3-.29.6-.43.91C958.51,374.63,958.65,374.33,958.8,374Z" transform="translate(-444 -28)"/><path class="cls-4" d="M958.37,374.94l-.19.42Z" transform="translate(-444 -28)"/><path class="cls-4" d="M1189.5,492.38a21,21,0,0,1-6,12.43s-44.53,44.32-45.7,45.1h0a125.77,125.77,0,0,1-177.69-178c-.17.25-.35.52-.5.78-.27.45-.51.9-.75,1.36-.15.3-.29.6-.43.91l-.19.42c-.16.39-.32.79-.46,1.18l0,0a21.46,21.46,0,0,0-1.21,6.9,8.23,8.23,0,0,0,0,.86,20.06,20.06,0,0,0,.47,3.86c0,.17.07.33.1.48A20.87,20.87,0,0,0,958.6,393l.32.63c.14.26.28.52.43.78a19.79,19.79,0,0,0,1.1,1.71c.13.19.26.36.4.54s.41.52.62.77l.28.33c.28.31.55.62.85.92l.07.07.69.66a21.39,21.39,0,0,0,26.39,2.07A83.85,83.85,0,0,0,1108.17,520.2h0c.24-.23,30.66-31.24,30.66-31.24L1154,504.07a20.95,20.95,0,0,0,35.54-11.69Z" transform="translate(-444 -28)"/><path class="cls-6" d="M1034.93,326.34a21.29,21.29,0,0,0-30.09.15l-42.09,42.1a20.51,20.51,0,0,0-2.7,3.3c-.17.25-.35.52-.5.78a21.41,21.41,0,0,0-3.06,10.82,8.23,8.23,0,0,0,0,.86,20.06,20.06,0,0,0,.47,3.86,3.71,3.71,0,0,0,.1.48A20.87,20.87,0,0,0,958.6,393l.32.63c.14.26.28.52.43.78a19.79,19.79,0,0,0,1.1,1.71l.4.54c.2.26.41.52.62.77s.37.43.56.64.37.41.57.61l.07.07.69.66a21.39,21.39,0,0,0,26.39,2.07l.57-.58q3-3,6.23-5.64l38.53-38.53a21.41,21.41,0,0,0,5.14-22l-.14,0c0-.08,0-.16-.07-.23A20.91,20.91,0,0,0,1034.93,326.34Zm-69.36,74.81a18.3,18.3,0,0,0,1.56,1A16.08,16.08,0,0,1,965.57,401.15Z" transform="translate(-444 -28)"/><path class="cls-4" d="M957.7,376.59a21.46,21.46,0,0,0-1.21,6.9,8.23,8.23,0,0,0,0,.86,20.06,20.06,0,0,0,.47,3.86,3.71,3.71,0,0,0,.1.48A20.87,20.87,0,0,0,958.6,393l.32.63c.14.26.28.52.43.78a19.79,19.79,0,0,0,1.1,1.71l.4.54c.2.26.41.52.62.77l.28.33A21.15,21.15,0,0,1,957.7,376.59Z" transform="translate(-444 -28)"/><path class="cls-4" d="M962,398.07c-.09-.1-.18-.21-.28-.31.28.31.55.62.85.92C962.4,398.48,962.21,398.28,962,398.07Z" transform="translate(-444 -28)"/><path class="cls-4" d="M1097.93,397.73a21,21,0,0,0-14.53,35.78L1097.93,448l-28.16,28.16a21,21,0,0,1-29.65-29.65l42.69-42.68A20.89,20.89,0,0,1,1097.93,397.73Z" transform="translate(-444 -28)"/><path class="cls-7" d="M1113.05,403.87l70.56,70.55a20.9,20.9,0,0,1,6,17.44c0,.14,0,.27,0,.39a.28.28,0,0,1,0,.13A21,21,0,0,1,1154,504.07l-70.56-70.56a21,21,0,0,1,14.53-35.78h.3a20.92,20.92,0,0,1,14.82,6.15Z" transform="translate(-444 -28)"/></g></svg>