<?xml version="1.0" encoding="utf-8"?>
<svg xmlns="http://www.w3.org/2000/svg" viewBox="0 0 32 32" width="64" height="64">
  <path d="M6 7.03125C5.691406 7.03125 5.402344 7.089844 5.125 7.175781L8.039063 9.03125L23.960938 9.03125L26.875 7.175781C26.597656 7.089844 26.308594 7.03125 26 7.03125 Z M 4.113281 7.71875C3.4375 8.269531 3 9.097656 3 10.03125L3 23.03125C3 24.683594 4.347656 26.03125 6 26.03125L26 26.03125C27.652344 26.03125 29 24.683594 29 23.03125L29 10.03125C29 9.097656 28.5625 8.269531 27.886719 7.71875L16 15.28125 Z M 6 12.445313L16 18.8125L26 12.445313L26 24.03125L6 24.03125Z" fill="#0F0F0F" />
</svg>