<?xml version="1.0" encoding="utf-8"?>
<svg xmlns="http://www.w3.org/2000/svg" viewBox="0 0 32 32" width="512" height="512">
  <path d="M15 3L15 8L17 8L17 3 Z M 7.5 6.09375L6.09375 7.5L9.625 11.0625L11.0625 9.625 Z M 24.5 6.09375L20.9375 9.625L22.375 11.0625L25.90625 7.5 Z M 16 9C12.144531 9 9 12.144531 9 16C9 19.855469 12.144531 23 16 23C19.855469 23 23 19.855469 23 16C23 12.144531 19.855469 9 16 9 Z M 16 11C18.773438 11 21 13.226563 21 16C21 18.773438 18.773438 21 16 21C13.226563 21 11 18.773438 11 16C11 13.226563 13.226563 11 16 11 Z M 3 15L3 17L8 17L8 15 Z M 24 15L24 17L29 17L29 15 Z M 9.625 20.9375L6.09375 24.5L7.5 25.90625L11.0625 22.375 Z M 22.375 20.9375L20.9375 22.375L24.5 25.90625L25.90625 24.5 Z M 15 24L15 29L17 29L17 24Z" fill="#FFFFFF" />
</svg>