<?xml version="1.0" encoding="utf-8"?>
<svg xmlns="http://www.w3.org/2000/svg" viewBox="0 0 30 30" width="60" height="60">
  <path d="M15 3C8.373 3 3 8.373 3 15C3 17.251208 3.6323415 19.350068 4.7109375 21.150391L3.1074219 27L9.0820312 25.431641C10.829354 26.425062 12.84649 27 15 27C21.627 27 27 21.627 27 15C27 8.373 21.627 3 15 3 z M 10.892578 9.4023438C11.087578 9.4023438 11.287937 9.4011562 11.460938 9.4101562C11.674938 9.4151563 11.907859 9.4308281 12.130859 9.9238281C12.395859 10.509828 12.972875 11.979906 13.046875 12.128906C13.120875 12.277906 13.173313 12.453437 13.070312 12.648438C12.972312 12.848437 12.921344 12.969484 12.777344 13.146484C12.628344 13.318484 12.465078 13.532109 12.330078 13.662109C12.181078 13.811109 12.027219 13.974484 12.199219 14.271484C12.371219 14.568484 12.968563 15.542125 13.851562 16.328125C14.986562 17.342125 15.944188 17.653734 16.242188 17.802734C16.540187 17.951734 16.712766 17.928516 16.884766 17.728516C17.061766 17.533516 17.628125 16.864406 17.828125 16.566406C18.023125 16.268406 18.222188 16.319969 18.492188 16.417969C18.766188 16.515969 20.227391 17.235766 20.525391 17.384766C20.823391 17.533766 21.01875 17.607516 21.09375 17.728516C21.17075 17.853516 21.170828 18.448578 20.923828 19.142578C20.676828 19.835578 19.463922 20.505734 18.919922 20.552734C18.370922 20.603734 17.858562 20.7995 15.351562 19.8125C12.327563 18.6215 10.420484 15.524219 10.271484 15.324219C10.122484 15.129219 9.0605469 13.713906 9.0605469 12.253906C9.0605469 10.788906 9.8286563 10.071437 10.097656 9.7734375C10.371656 9.4754375 10.692578 9.4023438 10.892578 9.4023438 z" fill="#0F0F0F" />
</svg>